<svg xmlns="http://www.w3.org/2000/svg" xmlns:xlink="http://www.w3.org/1999/xlink" width="600" height="400" viewBox="0 0 2400 1600">
<defs>
  <clipPath id="clip720">
    <rect x="0" y="0" width="2400" height="1600"></rect>
  </clipPath>
</defs>
<path clip-path="url(#clip720)" d="M0 1600 L2400 1600 L2400 0 L0 0  Z" fill="#ffffff" fill-rule="evenodd" fill-opacity="1"></path>
<defs>
  <clipPath id="clip721">
    <rect x="480" y="0" width="1681" height="1600"></rect>
  </clipPath>
</defs>
<path clip-path="url(#clip720)" d="M219.542 1423.18 L2352.76 1423.18 L2352.76 149.392 L219.542 149.392  Z" fill="#ffffff" fill-rule="evenodd" fill-opacity="1"></path>
<defs>
  <clipPath id="clip722">
    <rect x="219" y="149" width="2134" height="1275"></rect>
  </clipPath>
</defs>
<polyline clip-path="url(#clip722)" style="stroke:#000000; stroke-linecap:round; stroke-linejoin:round; stroke-width:2; stroke-opacity:0.1; fill:none" points="219.542,1423.18 219.542,149.392 "></polyline>
<polyline clip-path="url(#clip722)" style="stroke:#000000; stroke-linecap:round; stroke-linejoin:round; stroke-width:2; stroke-opacity:0.1; fill:none" points="646.185,1423.18 646.185,149.392 "></polyline>
<polyline clip-path="url(#clip722)" style="stroke:#000000; stroke-linecap:round; stroke-linejoin:round; stroke-width:2; stroke-opacity:0.1; fill:none" points="1072.83,1423.18 1072.83,149.392 "></polyline>
<polyline clip-path="url(#clip722)" style="stroke:#000000; stroke-linecap:round; stroke-linejoin:round; stroke-width:2; stroke-opacity:0.1; fill:none" points="1499.47,1423.18 1499.47,149.392 "></polyline>
<polyline clip-path="url(#clip722)" style="stroke:#000000; stroke-linecap:round; stroke-linejoin:round; stroke-width:2; stroke-opacity:0.1; fill:none" points="1926.11,1423.18 1926.11,149.392 "></polyline>
<polyline clip-path="url(#clip722)" style="stroke:#000000; stroke-linecap:round; stroke-linejoin:round; stroke-width:2; stroke-opacity:0.1; fill:none" points="2352.76,1423.18 2352.76,149.392 "></polyline>
<polyline clip-path="url(#clip720)" style="stroke:#000000; stroke-linecap:round; stroke-linejoin:round; stroke-width:4; stroke-opacity:1; fill:none" points="219.542,1423.18 2352.76,1423.18 "></polyline>
<polyline clip-path="url(#clip720)" style="stroke:#000000; stroke-linecap:round; stroke-linejoin:round; stroke-width:4; stroke-opacity:1; fill:none" points="219.542,1423.18 219.542,1404.28 "></polyline>
<polyline clip-path="url(#clip720)" style="stroke:#000000; stroke-linecap:round; stroke-linejoin:round; stroke-width:4; stroke-opacity:1; fill:none" points="646.185,1423.18 646.185,1404.28 "></polyline>
<polyline clip-path="url(#clip720)" style="stroke:#000000; stroke-linecap:round; stroke-linejoin:round; stroke-width:4; stroke-opacity:1; fill:none" points="1072.83,1423.18 1072.83,1404.28 "></polyline>
<polyline clip-path="url(#clip720)" style="stroke:#000000; stroke-linecap:round; stroke-linejoin:round; stroke-width:4; stroke-opacity:1; fill:none" points="1499.47,1423.18 1499.47,1404.28 "></polyline>
<polyline clip-path="url(#clip720)" style="stroke:#000000; stroke-linecap:round; stroke-linejoin:round; stroke-width:4; stroke-opacity:1; fill:none" points="1926.11,1423.18 1926.11,1404.28 "></polyline>
<polyline clip-path="url(#clip720)" style="stroke:#000000; stroke-linecap:round; stroke-linejoin:round; stroke-width:4; stroke-opacity:1; fill:none" points="2352.76,1423.18 2352.76,1404.28 "></polyline>
<path clip-path="url(#clip720)" d="M219.542 1454.1 Q215.931 1454.1 214.102 1457.66 Q212.297 1461.2 212.297 1468.33 Q212.297 1475.44 214.102 1479.01 Q215.931 1482.55 219.542 1482.55 Q223.176 1482.55 224.982 1479.01 Q226.811 1475.44 226.811 1468.33 Q226.811 1461.2 224.982 1457.66 Q223.176 1454.1 219.542 1454.1 M219.542 1450.39 Q225.352 1450.39 228.408 1455 Q231.487 1459.58 231.487 1468.33 Q231.487 1477.06 228.408 1481.67 Q225.352 1486.25 219.542 1486.25 Q213.732 1486.25 210.653 1481.67 Q207.598 1477.06 207.598 1468.33 Q207.598 1459.58 210.653 1455 Q213.732 1450.39 219.542 1450.39 Z" fill="#000000" fill-rule="nonzero" fill-opacity="1"></path><path clip-path="url(#clip720)" d="M640.838 1481.64 L657.157 1481.64 L657.157 1485.58 L635.213 1485.58 L635.213 1481.64 Q637.875 1478.89 642.458 1474.26 Q647.065 1469.61 648.245 1468.27 Q650.49 1465.74 651.37 1464.01 Q652.273 1462.25 652.273 1460.56 Q652.273 1457.8 650.328 1456.07 Q648.407 1454.33 645.305 1454.33 Q643.106 1454.33 640.653 1455.09 Q638.222 1455.86 635.444 1457.41 L635.444 1452.69 Q638.268 1451.55 640.722 1450.97 Q643.176 1450.39 645.213 1450.39 Q650.583 1450.39 653.777 1453.08 Q656.972 1455.77 656.972 1460.26 Q656.972 1462.39 656.162 1464.31 Q655.375 1466.2 653.268 1468.8 Q652.69 1469.47 649.588 1472.69 Q646.486 1475.88 640.838 1481.64 Z" fill="#000000" fill-rule="nonzero" fill-opacity="1"></path><path clip-path="url(#clip720)" d="M1075.84 1455.09 L1064.03 1473.54 L1075.84 1473.54 L1075.84 1455.09 M1074.61 1451.02 L1080.49 1451.02 L1080.49 1473.54 L1085.42 1473.54 L1085.42 1477.43 L1080.49 1477.43 L1080.49 1485.58 L1075.84 1485.58 L1075.84 1477.43 L1060.24 1477.43 L1060.24 1472.92 L1074.61 1451.02 Z" fill="#000000" fill-rule="nonzero" fill-opacity="1"></path><path clip-path="url(#clip720)" d="M1499.88 1466.44 Q1496.73 1466.44 1494.88 1468.59 Q1493.05 1470.74 1493.05 1474.49 Q1493.05 1478.22 1494.88 1480.39 Q1496.73 1482.55 1499.88 1482.55 Q1503.02 1482.55 1504.85 1480.39 Q1506.7 1478.22 1506.7 1474.49 Q1506.7 1470.74 1504.85 1468.59 Q1503.02 1466.44 1499.88 1466.44 M1509.16 1451.78 L1509.16 1456.04 Q1507.4 1455.21 1505.59 1454.77 Q1503.81 1454.33 1502.05 1454.33 Q1497.42 1454.33 1494.97 1457.45 Q1492.54 1460.58 1492.19 1466.9 Q1493.56 1464.89 1495.62 1463.82 Q1497.68 1462.73 1500.15 1462.73 Q1505.36 1462.73 1508.37 1465.9 Q1511.4 1469.05 1511.4 1474.49 Q1511.4 1479.82 1508.26 1483.03 Q1505.11 1486.25 1499.88 1486.25 Q1493.88 1486.25 1490.71 1481.67 Q1487.54 1477.06 1487.54 1468.33 Q1487.54 1460.14 1491.43 1455.28 Q1495.32 1450.39 1501.87 1450.39 Q1503.63 1450.39 1505.41 1450.74 Q1507.21 1451.09 1509.16 1451.78 Z" fill="#000000" fill-rule="nonzero" fill-opacity="1"></path><path clip-path="url(#clip720)" d="M1926.11 1469.17 Q1922.78 1469.17 1920.86 1470.95 Q1918.96 1472.73 1918.96 1475.86 Q1918.96 1478.98 1920.86 1480.77 Q1922.78 1482.55 1926.11 1482.55 Q1929.45 1482.55 1931.37 1480.77 Q1933.29 1478.96 1933.29 1475.86 Q1933.29 1472.73 1931.37 1470.95 Q1929.47 1469.17 1926.11 1469.17 M1921.44 1467.18 Q1918.43 1466.44 1916.74 1464.38 Q1915.07 1462.32 1915.07 1459.35 Q1915.07 1455.21 1918.01 1452.8 Q1920.97 1450.39 1926.11 1450.39 Q1931.28 1450.39 1934.21 1452.8 Q1937.15 1455.21 1937.15 1459.35 Q1937.15 1462.32 1935.46 1464.38 Q1933.8 1466.44 1930.81 1467.18 Q1934.19 1467.96 1936.07 1470.26 Q1937.96 1472.55 1937.96 1475.86 Q1937.96 1480.88 1934.89 1483.57 Q1931.83 1486.25 1926.11 1486.25 Q1920.4 1486.25 1917.32 1483.57 Q1914.26 1480.88 1914.26 1475.86 Q1914.26 1472.55 1916.16 1470.26 Q1918.06 1467.96 1921.44 1467.18 M1919.72 1459.79 Q1919.72 1462.48 1921.39 1463.98 Q1923.08 1465.49 1926.11 1465.49 Q1929.12 1465.49 1930.81 1463.98 Q1932.53 1462.48 1932.53 1459.79 Q1932.53 1457.11 1930.81 1455.6 Q1929.12 1454.1 1926.11 1454.1 Q1923.08 1454.1 1921.39 1455.6 Q1919.72 1457.11 1919.72 1459.79 Z" fill="#000000" fill-rule="nonzero" fill-opacity="1"></path><path clip-path="url(#clip720)" d="M2327.44 1481.64 L2335.08 1481.64 L2335.08 1455.28 L2326.77 1456.95 L2326.77 1452.69 L2335.04 1451.02 L2339.71 1451.02 L2339.71 1481.64 L2347.35 1481.64 L2347.35 1485.58 L2327.44 1485.58 L2327.44 1481.64 Z" fill="#000000" fill-rule="nonzero" fill-opacity="1"></path><path clip-path="url(#clip720)" d="M2366.8 1454.1 Q2363.18 1454.1 2361.36 1457.66 Q2359.55 1461.2 2359.55 1468.33 Q2359.55 1475.44 2361.36 1479.01 Q2363.18 1482.55 2366.8 1482.55 Q2370.43 1482.55 2372.23 1479.01 Q2374.06 1475.44 2374.06 1468.33 Q2374.06 1461.2 2372.23 1457.66 Q2370.43 1454.1 2366.8 1454.1 M2366.8 1450.39 Q2372.61 1450.39 2375.66 1455 Q2378.74 1459.58 2378.74 1468.33 Q2378.74 1477.06 2375.66 1481.67 Q2372.61 1486.25 2366.8 1486.25 Q2360.99 1486.25 2357.91 1481.67 Q2354.85 1477.06 2354.85 1468.33 Q2354.85 1459.58 2357.91 1455 Q2360.99 1450.39 2366.8 1450.39 Z" fill="#000000" fill-rule="nonzero" fill-opacity="1"></path><path clip-path="url(#clip720)" d="M1154.27 1520.52 L1163.85 1520.52 L1175.97 1552.86 L1188.16 1520.52 L1197.75 1520.52 L1197.75 1568.04 L1191.48 1568.04 L1191.48 1526.32 L1179.22 1558.91 L1172.76 1558.91 L1160.51 1526.32 L1160.51 1568.04 L1154.27 1568.04 L1154.27 1520.52 Z" fill="#000000" fill-rule="nonzero" fill-opacity="1"></path><path clip-path="url(#clip720)" d="M1226.45 1550.12 Q1219.36 1550.12 1216.62 1551.75 Q1213.88 1553.37 1213.88 1557.29 Q1213.88 1560.4 1215.92 1562.25 Q1217.99 1564.07 1221.52 1564.07 Q1226.39 1564.07 1229.32 1560.63 Q1232.28 1557.16 1232.28 1551.43 L1232.28 1550.12 L1226.45 1550.12 M1238.14 1547.71 L1238.14 1568.04 L1232.28 1568.04 L1232.28 1562.63 Q1230.27 1565.88 1227.28 1567.44 Q1224.29 1568.97 1219.96 1568.97 Q1214.49 1568.97 1211.24 1565.91 Q1208.03 1562.82 1208.03 1557.67 Q1208.03 1551.65 1212.04 1548.6 Q1216.08 1545.54 1224.07 1545.54 L1232.28 1545.54 L1232.28 1544.97 Q1232.28 1540.93 1229.61 1538.73 Q1226.96 1536.5 1222.16 1536.5 Q1219.1 1536.5 1216.21 1537.23 Q1213.31 1537.97 1210.64 1539.43 L1210.64 1534.02 Q1213.85 1532.78 1216.87 1532.17 Q1219.9 1531.54 1222.76 1531.54 Q1230.5 1531.54 1234.32 1535.55 Q1238.14 1539.56 1238.14 1547.71 Z" fill="#000000" fill-rule="nonzero" fill-opacity="1"></path><path clip-path="url(#clip720)" d="M1255.99 1522.27 L1255.99 1532.4 L1268.05 1532.4 L1268.05 1536.95 L1255.99 1536.95 L1255.99 1556.3 Q1255.99 1560.66 1257.17 1561.9 Q1258.38 1563.14 1262.04 1563.14 L1268.05 1563.14 L1268.05 1568.04 L1262.04 1568.04 Q1255.26 1568.04 1252.68 1565.53 Q1250.1 1562.98 1250.1 1556.3 L1250.1 1536.95 L1245.81 1536.95 L1245.81 1532.4 L1250.1 1532.4 L1250.1 1522.27 L1255.99 1522.27 Z" fill="#000000" fill-rule="nonzero" fill-opacity="1"></path><path clip-path="url(#clip720)" d="M1275.15 1553.98 L1275.15 1532.4 L1281.01 1532.4 L1281.01 1553.75 Q1281.01 1558.81 1282.98 1561.36 Q1284.96 1563.87 1288.9 1563.87 Q1293.64 1563.87 1296.38 1560.85 Q1299.15 1557.83 1299.15 1552.61 L1299.15 1532.4 L1305.01 1532.4 L1305.01 1568.04 L1299.15 1568.04 L1299.15 1562.57 Q1297.02 1565.82 1294.19 1567.41 Q1291.38 1568.97 1287.66 1568.97 Q1281.52 1568.97 1278.34 1565.15 Q1275.15 1561.33 1275.15 1553.98 M1289.89 1531.54 L1289.89 1531.54 Z" fill="#000000" fill-rule="nonzero" fill-opacity="1"></path><path clip-path="url(#clip720)" d="M1337.73 1537.87 Q1336.74 1537.3 1335.56 1537.04 Q1334.42 1536.76 1333.02 1536.76 Q1328.05 1536.76 1325.38 1540 Q1322.74 1543.22 1322.74 1549.27 L1322.74 1568.04 L1316.85 1568.04 L1316.85 1532.4 L1322.74 1532.4 L1322.74 1537.93 Q1324.58 1534.69 1327.54 1533.13 Q1330.5 1531.54 1334.74 1531.54 Q1335.34 1531.54 1336.07 1531.63 Q1336.8 1531.7 1337.7 1531.85 L1337.73 1537.87 Z" fill="#000000" fill-rule="nonzero" fill-opacity="1"></path><path clip-path="url(#clip720)" d="M1343.87 1532.4 L1349.73 1532.4 L1349.73 1568.04 L1343.87 1568.04 L1343.87 1532.4 M1343.87 1518.52 L1349.73 1518.52 L1349.73 1525.93 L1343.87 1525.93 L1343.87 1518.52 Z" fill="#000000" fill-rule="nonzero" fill-opacity="1"></path><path clip-path="url(#clip720)" d="M1367.77 1522.27 L1367.77 1532.4 L1379.84 1532.4 L1379.84 1536.95 L1367.77 1536.95 L1367.77 1556.3 Q1367.77 1560.66 1368.95 1561.9 Q1370.16 1563.14 1373.82 1563.14 L1379.84 1563.14 L1379.84 1568.04 L1373.82 1568.04 Q1367.04 1568.04 1364.46 1565.53 Q1361.89 1562.98 1361.89 1556.3 L1361.89 1536.95 L1357.59 1536.95 L1357.59 1532.4 L1361.89 1532.4 L1361.89 1522.27 L1367.77 1522.27 Z" fill="#000000" fill-rule="nonzero" fill-opacity="1"></path><path clip-path="url(#clip720)" d="M1402.37 1571.35 Q1399.89 1577.72 1397.53 1579.66 Q1395.18 1581.6 1391.23 1581.6 L1386.55 1581.6 L1386.55 1576.7 L1389.99 1576.7 Q1392.41 1576.7 1393.75 1575.56 Q1395.08 1574.41 1396.71 1570.14 L1397.76 1567.47 L1383.34 1532.4 L1389.54 1532.4 L1400.68 1560.28 L1411.82 1532.4 L1418.03 1532.4 L1402.37 1571.35 Z" fill="#000000" fill-rule="nonzero" fill-opacity="1"></path><polyline clip-path="url(#clip722)" style="stroke:#000000; stroke-linecap:round; stroke-linejoin:round; stroke-width:2; stroke-opacity:0.1; fill:none" points="219.542,1307.02 2352.76,1307.02 "></polyline>
<polyline clip-path="url(#clip722)" style="stroke:#000000; stroke-linecap:round; stroke-linejoin:round; stroke-width:2; stroke-opacity:0.1; fill:none" points="219.542,1066.68 2352.76,1066.68 "></polyline>
<polyline clip-path="url(#clip722)" style="stroke:#000000; stroke-linecap:round; stroke-linejoin:round; stroke-width:2; stroke-opacity:0.1; fill:none" points="219.542,826.342 2352.76,826.342 "></polyline>
<polyline clip-path="url(#clip722)" style="stroke:#000000; stroke-linecap:round; stroke-linejoin:round; stroke-width:2; stroke-opacity:0.1; fill:none" points="219.542,586.005 2352.76,586.005 "></polyline>
<polyline clip-path="url(#clip722)" style="stroke:#000000; stroke-linecap:round; stroke-linejoin:round; stroke-width:2; stroke-opacity:0.1; fill:none" points="219.542,345.668 2352.76,345.668 "></polyline>
<polyline clip-path="url(#clip720)" style="stroke:#000000; stroke-linecap:round; stroke-linejoin:round; stroke-width:4; stroke-opacity:1; fill:none" points="219.542,1423.18 219.542,149.392 "></polyline>
<polyline clip-path="url(#clip720)" style="stroke:#000000; stroke-linecap:round; stroke-linejoin:round; stroke-width:4; stroke-opacity:1; fill:none" points="219.542,1307.02 238.44,1307.02 "></polyline>
<polyline clip-path="url(#clip720)" style="stroke:#000000; stroke-linecap:round; stroke-linejoin:round; stroke-width:4; stroke-opacity:1; fill:none" points="219.542,1066.68 238.44,1066.68 "></polyline>
<polyline clip-path="url(#clip720)" style="stroke:#000000; stroke-linecap:round; stroke-linejoin:round; stroke-width:4; stroke-opacity:1; fill:none" points="219.542,826.342 238.44,826.342 "></polyline>
<polyline clip-path="url(#clip720)" style="stroke:#000000; stroke-linecap:round; stroke-linejoin:round; stroke-width:4; stroke-opacity:1; fill:none" points="219.542,586.005 238.44,586.005 "></polyline>
<polyline clip-path="url(#clip720)" style="stroke:#000000; stroke-linecap:round; stroke-linejoin:round; stroke-width:4; stroke-opacity:1; fill:none" points="219.542,345.668 238.44,345.668 "></polyline>
<path clip-path="url(#clip720)" d="M126.205 1292.82 Q122.593 1292.82 120.765 1296.38 Q118.959 1299.92 118.959 1307.05 Q118.959 1314.16 120.765 1317.72 Q122.593 1321.26 126.205 1321.26 Q129.839 1321.26 131.644 1317.72 Q133.473 1314.16 133.473 1307.05 Q133.473 1299.92 131.644 1296.38 Q129.839 1292.82 126.205 1292.82 M126.205 1289.11 Q132.015 1289.11 135.07 1293.72 Q138.149 1298.3 138.149 1307.05 Q138.149 1315.78 135.07 1320.38 Q132.015 1324.97 126.205 1324.97 Q120.394 1324.97 117.316 1320.38 Q114.26 1315.78 114.26 1307.05 Q114.26 1298.3 117.316 1293.72 Q120.394 1289.11 126.205 1289.11 Z" fill="#000000" fill-rule="nonzero" fill-opacity="1"></path><path clip-path="url(#clip720)" d="M146.366 1318.42 L151.251 1318.42 L151.251 1324.3 L146.366 1324.3 L146.366 1318.42 Z" fill="#000000" fill-rule="nonzero" fill-opacity="1"></path><path clip-path="url(#clip720)" d="M172.014 1305.15 Q168.866 1305.15 167.015 1307.31 Q165.186 1309.46 165.186 1313.21 Q165.186 1316.94 167.015 1319.11 Q168.866 1321.26 172.014 1321.26 Q175.163 1321.26 176.991 1319.11 Q178.843 1316.94 178.843 1313.21 Q178.843 1309.46 176.991 1307.31 Q175.163 1305.15 172.014 1305.15 M181.297 1290.5 L181.297 1294.76 Q179.538 1293.93 177.732 1293.49 Q175.95 1293.05 174.19 1293.05 Q169.561 1293.05 167.107 1296.17 Q164.677 1299.3 164.329 1305.62 Q165.695 1303.6 167.755 1302.54 Q169.815 1301.45 172.292 1301.45 Q177.501 1301.45 180.51 1304.62 Q183.542 1307.77 183.542 1313.21 Q183.542 1318.53 180.394 1321.75 Q177.246 1324.97 172.014 1324.97 Q166.019 1324.97 162.848 1320.38 Q159.677 1315.78 159.677 1307.05 Q159.677 1298.86 163.565 1294 Q167.454 1289.11 174.005 1289.11 Q175.764 1289.11 177.547 1289.46 Q179.352 1289.81 181.297 1290.5 Z" fill="#000000" fill-rule="nonzero" fill-opacity="1"></path><path clip-path="url(#clip720)" d="M126.552 1052.48 Q122.941 1052.48 121.112 1056.04 Q119.306 1059.58 119.306 1066.71 Q119.306 1073.82 121.112 1077.39 Q122.941 1080.93 126.552 1080.93 Q130.186 1080.93 131.992 1077.39 Q133.82 1073.82 133.82 1066.71 Q133.82 1059.58 131.992 1056.04 Q130.186 1052.48 126.552 1052.48 M126.552 1048.77 Q132.362 1048.77 135.417 1053.38 Q138.496 1057.96 138.496 1066.71 Q138.496 1075.44 135.417 1080.05 Q132.362 1084.63 126.552 1084.63 Q120.742 1084.63 117.663 1080.05 Q114.607 1075.44 114.607 1066.71 Q114.607 1057.96 117.663 1053.38 Q120.742 1048.77 126.552 1048.77 Z" fill="#000000" fill-rule="nonzero" fill-opacity="1"></path><path clip-path="url(#clip720)" d="M146.714 1078.08 L151.598 1078.08 L151.598 1083.96 L146.714 1083.96 L146.714 1078.08 Z" fill="#000000" fill-rule="nonzero" fill-opacity="1"></path><path clip-path="url(#clip720)" d="M161.922 1083.24 L161.922 1078.98 Q163.681 1079.82 165.487 1080.26 Q167.292 1080.7 169.028 1080.7 Q173.658 1080.7 176.089 1077.59 Q178.542 1074.47 178.889 1068.13 Q177.547 1070.12 175.487 1071.18 Q173.427 1072.25 170.927 1072.25 Q165.741 1072.25 162.709 1069.12 Q159.7 1065.97 159.7 1060.53 Q159.7 1055.21 162.848 1051.99 Q165.996 1048.77 171.227 1048.77 Q177.223 1048.77 180.371 1053.38 Q183.542 1057.96 183.542 1066.71 Q183.542 1074.89 179.653 1079.77 Q175.788 1084.63 169.237 1084.63 Q167.477 1084.63 165.672 1084.28 Q163.866 1083.94 161.922 1083.24 M171.227 1068.59 Q174.376 1068.59 176.204 1066.44 Q178.056 1064.28 178.056 1060.53 Q178.056 1056.81 176.204 1054.65 Q174.376 1052.48 171.227 1052.48 Q168.079 1052.48 166.227 1054.65 Q164.399 1056.81 164.399 1060.53 Q164.399 1064.28 166.227 1066.44 Q168.079 1068.59 171.227 1068.59 Z" fill="#000000" fill-rule="nonzero" fill-opacity="1"></path><path clip-path="url(#clip720)" d="M118.774 839.687 L126.413 839.687 L126.413 813.321 L118.103 814.988 L118.103 810.729 L126.367 809.062 L131.042 809.062 L131.042 839.687 L138.681 839.687 L138.681 843.622 L118.774 843.622 L118.774 839.687 Z" fill="#000000" fill-rule="nonzero" fill-opacity="1"></path><path clip-path="url(#clip720)" d="M148.126 837.743 L153.01 837.743 L153.01 843.622 L148.126 843.622 L148.126 837.743 Z" fill="#000000" fill-rule="nonzero" fill-opacity="1"></path><path clip-path="url(#clip720)" d="M167.223 839.687 L183.542 839.687 L183.542 843.622 L161.598 843.622 L161.598 839.687 Q164.26 836.932 168.843 832.303 Q173.45 827.65 174.63 826.307 Q176.876 823.784 177.755 822.048 Q178.658 820.289 178.658 818.599 Q178.658 815.845 176.714 814.108 Q174.792 812.372 171.69 812.372 Q169.491 812.372 167.038 813.136 Q164.607 813.9 161.829 815.451 L161.829 810.729 Q164.653 809.595 167.107 809.016 Q169.561 808.437 171.598 808.437 Q176.968 808.437 180.163 811.122 Q183.357 813.808 183.357 818.298 Q183.357 820.428 182.547 822.349 Q181.76 824.247 179.653 826.84 Q179.075 827.511 175.973 830.729 Q172.871 833.923 167.223 839.687 Z" fill="#000000" fill-rule="nonzero" fill-opacity="1"></path><path clip-path="url(#clip720)" d="M118.172 599.35 L125.811 599.35 L125.811 572.984 L117.501 574.651 L117.501 570.392 L125.765 568.725 L130.441 568.725 L130.441 599.35 L138.079 599.35 L138.079 603.285 L118.172 603.285 L118.172 599.35 Z" fill="#000000" fill-rule="nonzero" fill-opacity="1"></path><path clip-path="url(#clip720)" d="M147.524 597.405 L152.408 597.405 L152.408 603.285 L147.524 603.285 L147.524 597.405 Z" fill="#000000" fill-rule="nonzero" fill-opacity="1"></path><path clip-path="url(#clip720)" d="M162.64 568.725 L180.996 568.725 L180.996 572.66 L166.922 572.66 L166.922 581.132 Q167.94 580.785 168.959 580.623 Q169.977 580.438 170.996 580.438 Q176.783 580.438 180.163 583.609 Q183.542 586.78 183.542 592.197 Q183.542 597.776 180.07 600.878 Q176.598 603.956 170.278 603.956 Q168.102 603.956 165.834 603.586 Q163.589 603.215 161.181 602.475 L161.181 597.776 Q163.265 598.91 165.487 599.465 Q167.709 600.021 170.186 600.021 Q174.19 600.021 176.528 597.915 Q178.866 595.808 178.866 592.197 Q178.866 588.586 176.528 586.479 Q174.19 584.373 170.186 584.373 Q168.311 584.373 166.436 584.79 Q164.584 585.206 162.64 586.086 L162.64 568.725 Z" fill="#000000" fill-rule="nonzero" fill-opacity="1"></path><path clip-path="url(#clip720)" d="M117.269 359.012 L124.908 359.012 L124.908 332.647 L116.598 334.313 L116.598 330.054 L124.862 328.388 L129.538 328.388 L129.538 359.012 L137.177 359.012 L137.177 362.948 L117.269 362.948 L117.269 359.012 Z" fill="#000000" fill-rule="nonzero" fill-opacity="1"></path><path clip-path="url(#clip720)" d="M146.621 357.068 L151.505 357.068 L151.505 362.948 L146.621 362.948 L146.621 357.068 Z" fill="#000000" fill-rule="nonzero" fill-opacity="1"></path><path clip-path="url(#clip720)" d="M171.69 346.536 Q168.357 346.536 166.436 348.318 Q164.538 350.1 164.538 353.225 Q164.538 356.35 166.436 358.133 Q168.357 359.915 171.69 359.915 Q175.024 359.915 176.945 358.133 Q178.866 356.327 178.866 353.225 Q178.866 350.1 176.945 348.318 Q175.047 346.536 171.69 346.536 M167.015 344.545 Q164.005 343.804 162.315 341.744 Q160.649 339.684 160.649 336.721 Q160.649 332.577 163.589 330.17 Q166.552 327.763 171.69 327.763 Q176.852 327.763 179.792 330.17 Q182.732 332.577 182.732 336.721 Q182.732 339.684 181.042 341.744 Q179.376 343.804 176.389 344.545 Q179.769 345.332 181.644 347.624 Q183.542 349.915 183.542 353.225 Q183.542 358.249 180.464 360.934 Q177.408 363.619 171.69 363.619 Q165.973 363.619 162.894 360.934 Q159.839 358.249 159.839 353.225 Q159.839 349.915 161.737 347.624 Q163.635 345.332 167.015 344.545 M165.302 337.161 Q165.302 339.846 166.968 341.35 Q168.658 342.855 171.69 342.855 Q174.7 342.855 176.389 341.35 Q178.102 339.846 178.102 337.161 Q178.102 334.476 176.389 332.971 Q174.7 331.466 171.69 331.466 Q168.658 331.466 166.968 332.971 Q165.302 334.476 165.302 337.161 Z" fill="#000000" fill-rule="nonzero" fill-opacity="1"></path><path clip-path="url(#clip720)" d="M58.657 841.111 L77.5631 841.111 L77.5631 846.999 L28.3562 846.999 L28.3562 841.111 L33.7671 841.111 Q30.5842 839.265 29.0564 836.464 Q27.4968 833.631 27.4968 829.716 Q27.4968 823.223 32.6531 819.181 Q37.8093 815.107 46.212 815.107 Q54.6147 815.107 59.771 819.181 Q64.9272 823.223 64.9272 829.716 Q64.9272 833.631 63.3994 836.464 Q61.8398 839.265 58.657 841.111 M46.212 821.186 Q39.7508 821.186 36.0905 823.86 Q32.3984 826.501 32.3984 831.148 Q32.3984 835.795 36.0905 838.469 Q39.7508 841.111 46.212 841.111 Q52.6732 841.111 56.3653 838.469 Q60.0256 835.795 60.0256 831.148 Q60.0256 826.501 56.3653 823.86 Q52.6732 821.186 46.212 821.186 Z" fill="#000000" fill-rule="nonzero" fill-opacity="1"></path><path clip-path="url(#clip720)" d="M74.8259 778.313 L79.3773 778.313 L79.3773 812.178 L74.8259 812.178 L74.8259 778.313 Z" fill="#000000" fill-rule="nonzero" fill-opacity="1"></path><path clip-path="url(#clip720)" d="M46.212 747.216 Q39.7508 747.216 36.0905 749.89 Q32.3984 752.532 32.3984 757.179 Q32.3984 761.826 36.0905 764.499 Q39.7508 767.141 46.212 767.141 Q52.6732 767.141 56.3653 764.499 Q60.0256 761.826 60.0256 757.179 Q60.0256 752.532 56.3653 749.89 Q52.6732 747.216 46.212 747.216 M33.7671 767.141 Q30.5842 765.295 29.0564 762.494 Q27.4968 759.661 27.4968 755.747 Q27.4968 749.253 32.6531 745.211 Q37.8093 741.137 46.212 741.137 Q54.6147 741.137 59.771 745.211 Q64.9272 749.253 64.9272 755.747 Q64.9272 759.661 63.3994 762.494 Q61.8398 765.295 58.657 767.141 L64.0042 767.141 L64.0042 773.029 L14.479 773.029 L14.479 767.141 L33.7671 767.141 Z" fill="#000000" fill-rule="nonzero" fill-opacity="1"></path><path clip-path="url(#clip720)" d="M28.3562 731.43 L28.3562 725.573 L64.6407 725.573 Q71.452 725.573 74.5076 728.183 Q77.5631 730.761 77.5631 736.522 L77.5631 738.75 L72.5979 738.75 L72.5979 737.19 Q72.5979 733.848 71.0383 732.639 Q69.5105 731.43 64.6407 731.43 L28.3562 731.43 M14.479 731.43 L14.479 725.573 L21.895 725.573 L21.895 731.43 L14.479 731.43 Z" fill="#000000" fill-rule="nonzero" fill-opacity="1"></path><path clip-path="url(#clip720)" d="M934.458 23.76 L943.168 23.76 L954.192 53.158 L965.274 23.76 L973.983 23.76 L973.983 66.96 L968.283 66.96 L968.283 29.0262 L957.143 58.6556 L951.269 58.6556 L940.129 29.0262 L940.129 66.96 L934.458 66.96 L934.458 23.76 Z" fill="#000000" fill-rule="nonzero" fill-opacity="1"></path><path clip-path="url(#clip720)" d="M1013.07 49.4254 L1013.07 52.0295 L988.596 52.0295 Q988.943 57.5272 991.894 60.4207 Q994.875 63.2853 1000.17 63.2853 Q1003.24 63.2853 1006.1 62.5329 Q1008.99 61.7806 1011.83 60.276 L1011.83 65.3107 Q1008.97 66.526 1005.96 67.1625 Q1002.95 67.7991 999.851 67.7991 Q992.097 67.7991 987.554 63.2853 Q983.04 58.7714 983.04 51.0747 Q983.04 43.1175 987.323 38.459 Q991.634 33.7715 998.925 33.7715 Q1005.46 33.7715 1009.26 37.996 Q1013.07 42.1916 1013.07 49.4254 M1007.75 47.8629 Q1007.69 43.4937 1005.29 40.8895 Q1002.92 38.2854 998.983 38.2854 Q994.527 38.2854 991.836 40.8027 Q989.174 43.3201 988.769 47.8918 L1007.75 47.8629 Z" fill="#000000" fill-rule="nonzero" fill-opacity="1"></path><path clip-path="url(#clip720)" d="M1027.08 25.3514 L1027.08 34.5528 L1038.05 34.5528 L1038.05 38.6905 L1027.08 38.6905 L1027.08 56.283 Q1027.08 60.2471 1028.15 61.3755 Q1029.25 62.504 1032.58 62.504 L1038.05 62.504 L1038.05 66.96 L1032.58 66.96 Q1026.41 66.96 1024.07 64.6741 Q1021.73 62.3593 1021.73 56.283 L1021.73 38.6905 L1017.82 38.6905 L1017.82 34.5528 L1021.73 34.5528 L1021.73 25.3514 L1027.08 25.3514 Z" fill="#000000" fill-rule="nonzero" fill-opacity="1"></path><path clip-path="url(#clip720)" d="M1059.78 50.6696 Q1053.32 50.6696 1050.83 52.1453 Q1048.35 53.621 1048.35 57.18 Q1048.35 60.0156 1050.2 61.6938 Q1052.08 63.3431 1055.29 63.3431 Q1059.72 63.3431 1062.38 60.2181 Q1065.07 57.0642 1065.07 51.8559 L1065.07 50.6696 L1059.78 50.6696 M1070.39 48.4705 L1070.39 66.96 L1065.07 66.96 L1065.07 62.041 Q1063.25 64.9924 1060.53 66.4102 Q1057.81 67.7991 1053.87 67.7991 Q1048.9 67.7991 1045.94 65.0214 Q1043.02 62.2147 1043.02 57.5272 Q1043.02 52.0585 1046.67 49.2807 Q1050.34 46.5029 1057.61 46.5029 L1065.07 46.5029 L1065.07 45.9821 Q1065.07 42.3074 1062.64 40.3108 Q1060.24 38.2854 1055.87 38.2854 Q1053.09 38.2854 1050.46 38.9509 Q1047.83 39.6164 1045.4 40.9474 L1045.4 36.0285 Q1048.32 34.9 1051.07 34.3502 Q1053.82 33.7715 1056.42 33.7715 Q1063.45 33.7715 1066.92 37.4173 Q1070.39 41.0631 1070.39 48.4705 Z" fill="#000000" fill-rule="nonzero" fill-opacity="1"></path><path clip-path="url(#clip720)" d="M1104.63 50.7853 Q1104.63 44.9115 1102.19 41.584 Q1099.79 38.2275 1095.57 38.2275 Q1091.34 38.2275 1088.91 41.584 Q1086.51 44.9115 1086.51 50.7853 Q1086.51 56.6591 1088.91 60.0156 Q1091.34 63.3431 1095.57 63.3431 Q1099.79 63.3431 1102.19 60.0156 Q1104.63 56.6591 1104.63 50.7853 M1086.51 39.4717 Q1088.19 36.5782 1090.74 35.1893 Q1093.31 33.7715 1096.87 33.7715 Q1102.77 33.7715 1106.45 38.459 Q1110.15 43.1465 1110.15 50.7853 Q1110.15 58.4242 1106.45 63.1116 Q1102.77 67.7991 1096.87 67.7991 Q1093.31 67.7991 1090.74 66.4102 Q1088.19 64.9924 1086.51 62.0989 L1086.51 66.96 L1081.16 66.96 L1081.16 21.9371 L1086.51 21.9371 L1086.51 39.4717 Z" fill="#000000" fill-rule="nonzero" fill-opacity="1"></path><path clip-path="url(#clip720)" d="M1131.53 38.2854 Q1127.25 38.2854 1124.76 41.6418 Q1122.28 44.9694 1122.28 50.7853 Q1122.28 56.6013 1124.73 59.9577 Q1127.22 63.2853 1131.53 63.2853 Q1135.79 63.2853 1138.28 59.9288 Q1140.76 56.5723 1140.76 50.7853 Q1140.76 45.0272 1138.28 41.6708 Q1135.79 38.2854 1131.53 38.2854 M1131.53 33.7715 Q1138.48 33.7715 1142.44 38.2854 Q1146.41 42.7992 1146.41 50.7853 Q1146.41 58.7425 1142.44 63.2853 Q1138.48 67.7991 1131.53 67.7991 Q1124.56 67.7991 1120.6 63.2853 Q1116.66 58.7425 1116.66 50.7853 Q1116.66 42.7992 1120.6 38.2854 Q1124.56 33.7715 1131.53 33.7715 Z" fill="#000000" fill-rule="nonzero" fill-opacity="1"></path><path clip-path="url(#clip720)" d="M1155.23 21.9371 L1160.56 21.9371 L1160.56 66.96 L1155.23 66.96 L1155.23 21.9371 Z" fill="#000000" fill-rule="nonzero" fill-opacity="1"></path><path clip-path="url(#clip720)" d="M1171.7 34.5528 L1177.02 34.5528 L1177.02 66.96 L1171.7 66.96 L1171.7 34.5528 M1171.7 21.9371 L1177.02 21.9371 L1177.02 28.679 L1171.7 28.679 L1171.7 21.9371 Z" fill="#000000" fill-rule="nonzero" fill-opacity="1"></path><path clip-path="url(#clip720)" d="M1211.48 35.797 L1211.48 40.7738 Q1209.23 39.5296 1206.94 38.922 Q1204.68 38.2854 1202.37 38.2854 Q1197.19 38.2854 1194.32 41.584 Q1191.46 44.8536 1191.46 50.7853 Q1191.46 56.717 1194.32 60.0156 Q1197.19 63.2853 1202.37 63.2853 Q1204.68 63.2853 1206.94 62.6776 Q1209.23 62.041 1211.48 60.7968 L1211.48 65.7158 Q1209.25 66.7575 1206.85 67.2783 Q1204.48 67.7991 1201.79 67.7991 Q1194.47 67.7991 1190.16 63.1984 Q1185.85 58.5978 1185.85 50.7853 Q1185.85 42.8571 1190.19 38.3143 Q1194.56 33.7715 1202.14 33.7715 Q1204.6 33.7715 1206.94 34.2924 Q1209.28 34.7842 1211.48 35.797 Z" fill="#000000" fill-rule="nonzero" fill-opacity="1"></path><path clip-path="url(#clip720)" d="M1254.31 50.6696 Q1247.85 50.6696 1245.37 52.1453 Q1242.88 53.621 1242.88 57.18 Q1242.88 60.0156 1244.73 61.6938 Q1246.61 63.3431 1249.82 63.3431 Q1254.25 63.3431 1256.91 60.2181 Q1259.6 57.0642 1259.6 51.8559 L1259.6 50.6696 L1254.31 50.6696 M1264.93 48.4705 L1264.93 66.96 L1259.6 66.96 L1259.6 62.041 Q1257.78 64.9924 1255.06 66.4102 Q1252.34 67.7991 1248.4 67.7991 Q1243.43 67.7991 1240.48 65.0214 Q1237.55 62.2147 1237.55 57.5272 Q1237.55 52.0585 1241.2 49.2807 Q1244.87 46.5029 1252.14 46.5029 L1259.6 46.5029 L1259.6 45.9821 Q1259.6 42.3074 1257.17 40.3108 Q1254.77 38.2854 1250.4 38.2854 Q1247.62 38.2854 1244.99 38.9509 Q1242.36 39.6164 1239.93 40.9474 L1239.93 36.0285 Q1242.85 34.9 1245.6 34.3502 Q1248.35 33.7715 1250.95 33.7715 Q1257.98 33.7715 1261.45 37.4173 Q1264.93 41.0631 1264.93 48.4705 Z" fill="#000000" fill-rule="nonzero" fill-opacity="1"></path><path clip-path="url(#clip720)" d="M1299.21 35.797 L1299.21 40.7738 Q1296.96 39.5296 1294.67 38.922 Q1292.41 38.2854 1290.1 38.2854 Q1284.92 38.2854 1282.05 41.584 Q1279.19 44.8536 1279.19 50.7853 Q1279.19 56.717 1282.05 60.0156 Q1284.92 63.2853 1290.1 63.2853 Q1292.41 63.2853 1294.67 62.6776 Q1296.96 62.041 1299.21 60.7968 L1299.21 65.7158 Q1296.99 66.7575 1294.58 67.2783 Q1292.21 67.7991 1289.52 67.7991 Q1282.2 67.7991 1277.89 63.1984 Q1273.58 58.5978 1273.58 50.7853 Q1273.58 42.8571 1277.92 38.3143 Q1282.29 33.7715 1289.87 33.7715 Q1292.33 33.7715 1294.67 34.2924 Q1297.01 34.7842 1299.21 35.797 Z" fill="#000000" fill-rule="nonzero" fill-opacity="1"></path><path clip-path="url(#clip720)" d="M1331.79 35.797 L1331.79 40.7738 Q1329.54 39.5296 1327.25 38.922 Q1324.99 38.2854 1322.68 38.2854 Q1317.5 38.2854 1314.64 41.584 Q1311.77 44.8536 1311.77 50.7853 Q1311.77 56.717 1314.64 60.0156 Q1317.5 63.2853 1322.68 63.2853 Q1324.99 63.2853 1327.25 62.6776 Q1329.54 62.041 1331.79 60.7968 L1331.79 65.7158 Q1329.57 66.7575 1327.16 67.2783 Q1324.79 67.7991 1322.1 67.7991 Q1314.78 67.7991 1310.47 63.1984 Q1306.16 58.5978 1306.16 50.7853 Q1306.16 42.8571 1310.5 38.3143 Q1314.87 33.7715 1322.45 33.7715 Q1324.91 33.7715 1327.25 34.2924 Q1329.59 34.7842 1331.79 35.797 Z" fill="#000000" fill-rule="nonzero" fill-opacity="1"></path><path clip-path="url(#clip720)" d="M1368.77 49.4254 L1368.77 52.0295 L1344.29 52.0295 Q1344.64 57.5272 1347.59 60.4207 Q1350.57 63.2853 1355.87 63.2853 Q1358.94 63.2853 1361.8 62.5329 Q1364.69 61.7806 1367.53 60.276 L1367.53 65.3107 Q1364.66 66.526 1361.66 67.1625 Q1358.65 67.7991 1355.55 67.7991 Q1347.8 67.7991 1343.25 63.2853 Q1338.74 58.7714 1338.74 51.0747 Q1338.74 43.1175 1343.02 38.459 Q1347.33 33.7715 1354.62 33.7715 Q1361.16 33.7715 1364.95 37.996 Q1368.77 42.1916 1368.77 49.4254 M1363.45 47.8629 Q1363.39 43.4937 1360.99 40.8895 Q1358.62 38.2854 1354.68 38.2854 Q1350.23 38.2854 1347.53 40.8027 Q1344.87 43.3201 1344.47 47.8918 L1363.45 47.8629 Z" fill="#000000" fill-rule="nonzero" fill-opacity="1"></path><path clip-path="url(#clip720)" d="M1377.51 21.9371 L1382.84 21.9371 L1382.84 66.96 L1377.51 66.96 L1377.51 21.9371 Z" fill="#000000" fill-rule="nonzero" fill-opacity="1"></path><path clip-path="url(#clip720)" d="M1421.7 49.4254 L1421.7 52.0295 L1397.22 52.0295 Q1397.56 57.5272 1400.51 60.4207 Q1403.5 63.2853 1408.79 63.2853 Q1411.86 63.2853 1414.72 62.5329 Q1417.62 61.7806 1420.45 60.276 L1420.45 65.3107 Q1417.59 66.526 1414.58 67.1625 Q1411.57 67.7991 1408.47 67.7991 Q1400.72 67.7991 1396.17 63.2853 Q1391.66 58.7714 1391.66 51.0747 Q1391.66 43.1175 1395.94 38.459 Q1400.25 33.7715 1407.55 33.7715 Q1414.09 33.7715 1417.88 37.996 Q1421.7 42.1916 1421.7 49.4254 M1416.37 47.8629 Q1416.31 43.4937 1413.91 40.8895 Q1411.54 38.2854 1407.6 38.2854 Q1403.15 38.2854 1400.46 40.8027 Q1397.79 43.3201 1397.39 47.8918 L1416.37 47.8629 Z" fill="#000000" fill-rule="nonzero" fill-opacity="1"></path><path clip-path="url(#clip720)" d="M1449.21 39.5296 Q1448.32 39.0088 1447.24 38.7773 Q1446.2 38.5169 1444.93 38.5169 Q1440.42 38.5169 1437.99 41.4682 Q1435.58 44.3907 1435.58 49.8883 L1435.58 66.96 L1430.23 66.96 L1430.23 34.5528 L1435.58 34.5528 L1435.58 39.5875 Q1437.26 36.6361 1439.95 35.2183 Q1442.64 33.7715 1446.49 33.7715 Q1447.04 33.7715 1447.71 33.8583 Q1448.37 33.9162 1449.18 34.0609 L1449.21 39.5296 Z" fill="#000000" fill-rule="nonzero" fill-opacity="1"></path><path clip-path="url(#clip720)" d="M1469.52 50.6696 Q1463.07 50.6696 1460.58 52.1453 Q1458.1 53.621 1458.1 57.18 Q1458.1 60.0156 1459.95 61.6938 Q1461.83 63.3431 1465.04 63.3431 Q1469.47 63.3431 1472.13 60.2181 Q1474.82 57.0642 1474.82 51.8559 L1474.82 50.6696 L1469.52 50.6696 M1480.14 48.4705 L1480.14 66.96 L1474.82 66.96 L1474.82 62.041 Q1473 64.9924 1470.28 66.4102 Q1467.56 67.7991 1463.62 67.7991 Q1458.65 67.7991 1455.69 65.0214 Q1452.77 62.2147 1452.77 57.5272 Q1452.77 52.0585 1456.42 49.2807 Q1460.09 46.5029 1467.35 46.5029 L1474.82 46.5029 L1474.82 45.9821 Q1474.82 42.3074 1472.39 40.3108 Q1469.99 38.2854 1465.62 38.2854 Q1462.84 38.2854 1460.21 38.9509 Q1457.57 39.6164 1455.14 40.9474 L1455.14 36.0285 Q1458.07 34.9 1460.82 34.3502 Q1463.56 33.7715 1466.17 33.7715 Q1473.2 33.7715 1476.67 37.4173 Q1480.14 41.0631 1480.14 48.4705 Z" fill="#000000" fill-rule="nonzero" fill-opacity="1"></path><path clip-path="url(#clip720)" d="M1496.38 25.3514 L1496.38 34.5528 L1507.34 34.5528 L1507.34 38.6905 L1496.38 38.6905 L1496.38 56.283 Q1496.38 60.2471 1497.45 61.3755 Q1498.55 62.504 1501.87 62.504 L1507.34 62.504 L1507.34 66.96 L1501.87 66.96 Q1495.71 66.96 1493.37 64.6741 Q1491.02 62.3593 1491.02 56.283 L1491.02 38.6905 L1487.12 38.6905 L1487.12 34.5528 L1491.02 34.5528 L1491.02 25.3514 L1496.38 25.3514 Z" fill="#000000" fill-rule="nonzero" fill-opacity="1"></path><path clip-path="url(#clip720)" d="M1514.35 34.5528 L1519.67 34.5528 L1519.67 66.96 L1514.35 66.96 L1514.35 34.5528 M1514.35 21.9371 L1519.67 21.9371 L1519.67 28.679 L1514.35 28.679 L1514.35 21.9371 Z" fill="#000000" fill-rule="nonzero" fill-opacity="1"></path><path clip-path="url(#clip720)" d="M1543.37 38.2854 Q1539.08 38.2854 1536.6 41.6418 Q1534.11 44.9694 1534.11 50.7853 Q1534.11 56.6013 1536.57 59.9577 Q1539.06 63.2853 1543.37 63.2853 Q1547.62 63.2853 1550.11 59.9288 Q1552.6 56.5723 1552.6 50.7853 Q1552.6 45.0272 1550.11 41.6708 Q1547.62 38.2854 1543.37 38.2854 M1543.37 33.7715 Q1550.31 33.7715 1554.28 38.2854 Q1558.24 42.7992 1558.24 50.7853 Q1558.24 58.7425 1554.28 63.2853 Q1550.31 67.7991 1543.37 67.7991 Q1536.39 67.7991 1532.43 63.2853 Q1528.49 58.7425 1528.49 50.7853 Q1528.49 42.7992 1532.43 38.2854 Q1536.39 33.7715 1543.37 33.7715 Z" fill="#000000" fill-rule="nonzero" fill-opacity="1"></path><path clip-path="url(#clip720)" d="M1594 47.3999 L1594 66.96 L1588.68 66.96 L1588.68 47.5735 Q1588.68 42.9729 1586.89 40.687 Q1585.09 38.4011 1581.5 38.4011 Q1577.19 38.4011 1574.7 41.15 Q1572.22 43.8988 1572.22 48.6441 L1572.22 66.96 L1566.86 66.96 L1566.86 34.5528 L1572.22 34.5528 L1572.22 39.5875 Q1574.12 36.665 1576.7 35.2183 Q1579.3 33.7715 1582.69 33.7715 Q1588.27 33.7715 1591.14 37.2437 Q1594 40.687 1594 47.3999 Z" fill="#000000" fill-rule="nonzero" fill-opacity="1"></path><path clip-path="url(#clip720)" d="M1605.98 59.6105 L1612.09 59.6105 L1612.09 66.96 L1605.98 66.96 L1605.98 59.6105 M1605.98 36.3178 L1612.09 36.3178 L1612.09 43.6673 L1605.98 43.6673 L1605.98 36.3178 Z" fill="#000000" fill-rule="nonzero" fill-opacity="1"></path><path clip-path="url(#clip720)" d="M735.067 93.3632 L735.067 126.957 L742.127 126.957 Q751.068 126.957 755.206 122.906 Q759.372 118.855 759.372 110.117 Q759.372 101.436 755.206 97.4141 Q751.068 93.3632 742.127 93.3632 L735.067 93.3632 M729.222 88.56 L741.23 88.56 Q753.788 88.56 759.662 93.7972 Q765.536 99.0055 765.536 110.117 Q765.536 121.286 759.633 126.523 Q753.73 131.76 741.23 131.76 L729.222 131.76 L729.222 88.56 Z" fill="#000000" fill-rule="nonzero" fill-opacity="1"></path><path clip-path="url(#clip720)" d="M802.341 114.225 L802.341 116.83 L777.862 116.83 Q778.209 122.327 781.16 125.221 Q784.141 128.085 789.436 128.085 Q792.503 128.085 795.368 127.333 Q798.261 126.581 801.097 125.076 L801.097 130.111 Q798.232 131.326 795.223 131.963 Q792.214 132.599 789.118 132.599 Q781.363 132.599 776.82 128.085 Q772.306 123.571 772.306 115.875 Q772.306 107.918 776.589 103.259 Q780.9 98.5715 788.192 98.5715 Q794.731 98.5715 798.521 102.796 Q802.341 106.992 802.341 114.225 M797.017 112.663 Q796.959 108.294 794.557 105.69 Q792.185 103.085 788.25 103.085 Q783.794 103.085 781.103 105.603 Q778.441 108.12 778.035 112.692 L797.017 112.663 Z" fill="#000000" fill-rule="nonzero" fill-opacity="1"></path><path clip-path="url(#clip720)" d="M816.23 126.899 L816.23 144.086 L810.877 144.086 L810.877 99.3528 L816.23 99.3528 L816.23 104.272 Q817.908 101.378 820.454 99.9893 Q823.029 98.5715 826.588 98.5715 Q832.491 98.5715 836.166 103.259 Q839.87 107.946 839.87 115.585 Q839.87 123.224 836.166 127.912 Q832.491 132.599 826.588 132.599 Q823.029 132.599 820.454 131.21 Q817.908 129.792 816.23 126.899 M834.343 115.585 Q834.343 109.712 831.912 106.384 Q829.511 103.028 825.286 103.028 Q821.062 103.028 818.631 106.384 Q816.23 109.712 816.23 115.585 Q816.23 121.459 818.631 124.816 Q821.062 128.143 825.286 128.143 Q829.511 128.143 831.912 124.816 Q834.343 121.459 834.343 115.585 Z" fill="#000000" fill-rule="nonzero" fill-opacity="1"></path><path clip-path="url(#clip720)" d="M876.415 114.225 L876.415 116.83 L851.936 116.83 Q852.283 122.327 855.234 125.221 Q858.214 128.085 863.51 128.085 Q866.577 128.085 869.441 127.333 Q872.335 126.581 875.17 125.076 L875.17 130.111 Q872.306 131.326 869.297 131.963 Q866.287 132.599 863.191 132.599 Q855.437 132.599 850.894 128.085 Q846.38 123.571 846.38 115.875 Q846.38 107.918 850.662 103.259 Q854.974 98.5715 862.265 98.5715 Q868.805 98.5715 872.595 102.796 Q876.415 106.992 876.415 114.225 M871.091 112.663 Q871.033 108.294 868.631 105.69 Q866.258 103.085 862.323 103.085 Q857.867 103.085 855.176 105.603 Q852.514 108.12 852.109 112.692 L871.091 112.663 Z" fill="#000000" fill-rule="nonzero" fill-opacity="1"></path><path clip-path="url(#clip720)" d="M912.091 112.2 L912.091 131.76 L906.767 131.76 L906.767 112.374 Q906.767 107.773 904.973 105.487 Q903.179 103.201 899.592 103.201 Q895.28 103.201 892.792 105.95 Q890.303 108.699 890.303 113.444 L890.303 131.76 L884.95 131.76 L884.95 99.3528 L890.303 99.3528 L890.303 104.387 Q892.213 101.465 894.788 100.018 Q897.392 98.5715 900.778 98.5715 Q906.362 98.5715 909.227 102.044 Q912.091 105.487 912.091 112.2 Z" fill="#000000" fill-rule="nonzero" fill-opacity="1"></path><path clip-path="url(#clip720)" d="M944.036 104.272 L944.036 86.7371 L949.36 86.7371 L949.36 131.76 L944.036 131.76 L944.036 126.899 Q942.357 129.792 939.782 131.21 Q937.236 132.599 933.648 132.599 Q927.774 132.599 924.071 127.912 Q920.396 123.224 920.396 115.585 Q920.396 107.946 924.071 103.259 Q927.774 98.5715 933.648 98.5715 Q937.236 98.5715 939.782 99.9893 Q942.357 101.378 944.036 104.272 M925.893 115.585 Q925.893 121.459 928.295 124.816 Q930.726 128.143 934.95 128.143 Q939.175 128.143 941.605 124.816 Q944.036 121.459 944.036 115.585 Q944.036 109.712 941.605 106.384 Q939.175 103.028 934.95 103.028 Q930.726 103.028 928.295 106.384 Q925.893 109.712 925.893 115.585 Z" fill="#000000" fill-rule="nonzero" fill-opacity="1"></path><path clip-path="url(#clip720)" d="M988.046 114.225 L988.046 116.83 L963.567 116.83 Q963.914 122.327 966.865 125.221 Q969.846 128.085 975.141 128.085 Q978.208 128.085 981.073 127.333 Q983.966 126.581 986.802 125.076 L986.802 130.111 Q983.937 131.326 980.928 131.963 Q977.919 132.599 974.823 132.599 Q967.068 132.599 962.525 128.085 Q958.011 123.571 958.011 115.875 Q958.011 107.918 962.294 103.259 Q966.605 98.5715 973.897 98.5715 Q980.436 98.5715 984.226 102.796 Q988.046 106.992 988.046 114.225 M982.722 112.663 Q982.664 108.294 980.262 105.69 Q977.89 103.085 973.955 103.085 Q969.499 103.085 966.808 105.603 Q964.146 108.12 963.74 112.692 L982.722 112.663 Z" fill="#000000" fill-rule="nonzero" fill-opacity="1"></path><path clip-path="url(#clip720)" d="M1023.72 112.2 L1023.72 131.76 L1018.4 131.76 L1018.4 112.374 Q1018.4 107.773 1016.6 105.487 Q1014.81 103.201 1011.22 103.201 Q1006.91 103.201 1004.42 105.95 Q1001.93 108.699 1001.93 113.444 L1001.93 131.76 L996.582 131.76 L996.582 99.3528 L1001.93 99.3528 L1001.93 104.387 Q1003.84 101.465 1006.42 100.018 Q1009.02 98.5715 1012.41 98.5715 Q1017.99 98.5715 1020.86 102.044 Q1023.72 105.487 1023.72 112.2 Z" fill="#000000" fill-rule="nonzero" fill-opacity="1"></path><path clip-path="url(#clip720)" d="M1057.66 100.597 L1057.66 105.574 Q1055.41 104.33 1053.12 103.722 Q1050.86 103.085 1048.55 103.085 Q1043.37 103.085 1040.51 106.384 Q1037.64 109.654 1037.64 115.585 Q1037.64 121.517 1040.51 124.816 Q1043.37 128.085 1048.55 128.085 Q1050.86 128.085 1053.12 127.478 Q1055.41 126.841 1057.66 125.597 L1057.66 130.516 Q1055.44 131.557 1053.03 132.078 Q1050.66 132.599 1047.97 132.599 Q1040.65 132.599 1036.34 127.998 Q1032.03 123.398 1032.03 115.585 Q1032.03 107.657 1036.37 103.114 Q1040.74 98.5715 1048.32 98.5715 Q1050.78 98.5715 1053.12 99.0924 Q1055.46 99.5842 1057.66 100.597 Z" fill="#000000" fill-rule="nonzero" fill-opacity="1"></path><path clip-path="url(#clip720)" d="M1080.41 134.769 Q1078.15 140.556 1076.01 142.321 Q1073.87 144.086 1070.28 144.086 L1066.03 144.086 L1066.03 139.63 L1069.15 139.63 Q1071.35 139.63 1072.57 138.589 Q1073.78 137.547 1075.26 133.67 L1076.21 131.239 L1063.1 99.3528 L1068.75 99.3528 L1078.87 124.7 L1089 99.3528 L1094.64 99.3528 L1080.41 134.769 Z" fill="#000000" fill-rule="nonzero" fill-opacity="1"></path><path clip-path="url(#clip720)" d="M1133.39 103.085 Q1129.1 103.085 1126.62 106.442 Q1124.13 109.769 1124.13 115.585 Q1124.13 121.401 1126.59 124.758 Q1129.08 128.085 1133.39 128.085 Q1137.64 128.085 1140.13 124.729 Q1142.62 121.372 1142.62 115.585 Q1142.62 109.827 1140.13 106.471 Q1137.64 103.085 1133.39 103.085 M1133.39 98.5715 Q1140.33 98.5715 1144.3 103.085 Q1148.26 107.599 1148.26 115.585 Q1148.26 123.542 1144.3 128.085 Q1140.33 132.599 1133.39 132.599 Q1126.41 132.599 1122.45 128.085 Q1118.51 123.542 1118.51 115.585 Q1118.51 107.599 1122.45 103.085 Q1126.41 98.5715 1133.39 98.5715 Z" fill="#000000" fill-rule="nonzero" fill-opacity="1"></path><path clip-path="url(#clip720)" d="M1173.49 86.7371 L1173.49 91.1642 L1168.4 91.1642 Q1165.53 91.1642 1164.4 92.3216 Q1163.31 93.479 1163.31 96.4882 L1163.31 99.3528 L1172.07 99.3528 L1172.07 103.49 L1163.31 103.49 L1163.31 131.76 L1157.95 131.76 L1157.95 103.49 L1152.86 103.49 L1152.86 99.3528 L1157.95 99.3528 L1157.95 97.0958 Q1157.95 91.685 1160.47 89.2255 Q1162.99 86.7371 1168.46 86.7371 L1173.49 86.7371 Z" fill="#000000" fill-rule="nonzero" fill-opacity="1"></path><path clip-path="url(#clip720)" d="M1201.93 126.899 L1201.93 144.086 L1196.58 144.086 L1196.58 99.3528 L1201.93 99.3528 L1201.93 104.272 Q1203.61 101.378 1206.16 99.9893 Q1208.73 98.5715 1212.29 98.5715 Q1218.2 98.5715 1221.87 103.259 Q1225.57 107.946 1225.57 115.585 Q1225.57 123.224 1221.87 127.912 Q1218.2 132.599 1212.29 132.599 Q1208.73 132.599 1206.16 131.21 Q1203.61 129.792 1201.93 126.899 M1220.05 115.585 Q1220.05 109.712 1217.62 106.384 Q1215.21 103.028 1210.99 103.028 Q1206.77 103.028 1204.34 106.384 Q1201.93 109.712 1201.93 115.585 Q1201.93 121.459 1204.34 124.816 Q1206.77 128.143 1210.99 128.143 Q1215.21 128.143 1217.62 124.816 Q1220.05 121.459 1220.05 115.585 Z" fill="#000000" fill-rule="nonzero" fill-opacity="1"></path><path clip-path="url(#clip720)" d="M1249.13 115.47 Q1242.67 115.47 1240.19 116.945 Q1237.7 118.421 1237.7 121.98 Q1237.7 124.816 1239.55 126.494 Q1241.43 128.143 1244.64 128.143 Q1249.07 128.143 1251.73 125.018 Q1254.42 121.864 1254.42 116.656 L1254.42 115.47 L1249.13 115.47 M1259.75 113.271 L1259.75 131.76 L1254.42 131.76 L1254.42 126.841 Q1252.6 129.792 1249.88 131.21 Q1247.16 132.599 1243.22 132.599 Q1238.25 132.599 1235.3 129.821 Q1232.37 127.015 1232.37 122.327 Q1232.37 116.858 1236.02 114.081 Q1239.69 111.303 1246.96 111.303 L1254.42 111.303 L1254.42 110.782 Q1254.42 107.107 1251.99 105.111 Q1249.59 103.085 1245.22 103.085 Q1242.44 103.085 1239.81 103.751 Q1237.18 104.416 1234.75 105.747 L1234.75 100.828 Q1237.67 99.7 1240.42 99.1502 Q1243.17 98.5715 1245.77 98.5715 Q1252.8 98.5715 1256.27 102.217 Q1259.75 105.863 1259.75 113.271 Z" fill="#000000" fill-rule="nonzero" fill-opacity="1"></path><path clip-path="url(#clip720)" d="M1289.49 104.33 Q1288.59 103.809 1287.52 103.577 Q1286.48 103.317 1285.21 103.317 Q1280.69 103.317 1278.26 106.268 Q1275.86 109.191 1275.86 114.688 L1275.86 131.76 L1270.51 131.76 L1270.51 99.3528 L1275.86 99.3528 L1275.86 104.387 Q1277.54 101.436 1280.23 100.018 Q1282.92 98.5715 1286.77 98.5715 Q1287.32 98.5715 1287.99 98.6583 Q1288.65 98.7162 1289.46 98.8609 L1289.49 104.33 Z" fill="#000000" fill-rule="nonzero" fill-opacity="1"></path><path clip-path="url(#clip720)" d="M1309.8 115.47 Q1303.35 115.47 1300.86 116.945 Q1298.37 118.421 1298.37 121.98 Q1298.37 124.816 1300.23 126.494 Q1302.11 128.143 1305.32 128.143 Q1309.75 128.143 1312.41 125.018 Q1315.1 121.864 1315.1 116.656 L1315.1 115.47 L1309.8 115.47 M1320.42 113.271 L1320.42 131.76 L1315.1 131.76 L1315.1 126.841 Q1313.28 129.792 1310.56 131.21 Q1307.84 132.599 1303.9 132.599 Q1298.92 132.599 1295.97 129.821 Q1293.05 127.015 1293.05 122.327 Q1293.05 116.858 1296.7 114.081 Q1300.37 111.303 1307.63 111.303 L1315.1 111.303 L1315.1 110.782 Q1315.1 107.107 1312.67 105.111 Q1310.27 103.085 1305.9 103.085 Q1303.12 103.085 1300.49 103.751 Q1297.85 104.416 1295.42 105.747 L1295.42 100.828 Q1298.35 99.7 1301.09 99.1502 Q1303.84 98.5715 1306.45 98.5715 Q1313.48 98.5715 1316.95 102.217 Q1320.42 105.863 1320.42 113.271 Z" fill="#000000" fill-rule="nonzero" fill-opacity="1"></path><path clip-path="url(#clip720)" d="M1356.62 105.574 Q1358.62 101.986 1361.39 100.279 Q1364.17 98.5715 1367.93 98.5715 Q1373 98.5715 1375.75 102.131 Q1378.5 105.661 1378.5 112.2 L1378.5 131.76 L1373.14 131.76 L1373.14 112.374 Q1373.14 107.715 1371.49 105.458 Q1369.84 103.201 1366.46 103.201 Q1362.32 103.201 1359.92 105.95 Q1357.52 108.699 1357.52 113.444 L1357.52 131.76 L1352.16 131.76 L1352.16 112.374 Q1352.16 107.686 1350.52 105.458 Q1348.87 103.201 1345.42 103.201 Q1341.34 103.201 1338.94 105.979 Q1336.54 108.728 1336.54 113.444 L1336.54 131.76 L1331.19 131.76 L1331.19 99.3528 L1336.54 99.3528 L1336.54 104.387 Q1338.36 101.407 1340.91 99.9893 Q1343.45 98.5715 1346.96 98.5715 Q1350.49 98.5715 1352.95 100.365 Q1355.43 102.159 1356.62 105.574 Z" fill="#000000" fill-rule="nonzero" fill-opacity="1"></path><path clip-path="url(#clip720)" d="M1416.83 114.225 L1416.83 116.83 L1392.36 116.83 Q1392.7 122.327 1395.65 125.221 Q1398.63 128.085 1403.93 128.085 Q1407 128.085 1409.86 127.333 Q1412.75 126.581 1415.59 125.076 L1415.59 130.111 Q1412.73 131.326 1409.72 131.963 Q1406.71 132.599 1403.61 132.599 Q1395.86 132.599 1391.31 128.085 Q1386.8 123.571 1386.8 115.875 Q1386.8 107.918 1391.08 103.259 Q1395.39 98.5715 1402.68 98.5715 Q1409.22 98.5715 1413.01 102.796 Q1416.83 106.992 1416.83 114.225 M1411.51 112.663 Q1411.45 108.294 1409.05 105.69 Q1406.68 103.085 1402.74 103.085 Q1398.29 103.085 1395.6 105.603 Q1392.93 108.12 1392.53 112.692 L1411.51 112.663 Z" fill="#000000" fill-rule="nonzero" fill-opacity="1"></path><path clip-path="url(#clip720)" d="M1430.84 90.1514 L1430.84 99.3528 L1441.81 99.3528 L1441.81 103.49 L1430.84 103.49 L1430.84 121.083 Q1430.84 125.047 1431.91 126.176 Q1433.01 127.304 1436.34 127.304 L1441.81 127.304 L1441.81 131.76 L1436.34 131.76 Q1430.17 131.76 1427.83 129.474 Q1425.49 127.159 1425.49 121.083 L1425.49 103.49 L1421.58 103.49 L1421.58 99.3528 L1425.49 99.3528 L1425.49 90.1514 L1430.84 90.1514 Z" fill="#000000" fill-rule="nonzero" fill-opacity="1"></path><path clip-path="url(#clip720)" d="M1476.53 114.225 L1476.53 116.83 L1452.05 116.83 Q1452.4 122.327 1455.35 125.221 Q1458.33 128.085 1463.62 128.085 Q1466.69 128.085 1469.55 127.333 Q1472.45 126.581 1475.28 125.076 L1475.28 130.111 Q1472.42 131.326 1469.41 131.963 Q1466.4 132.599 1463.3 132.599 Q1455.55 132.599 1451.01 128.085 Q1446.49 123.571 1446.49 115.875 Q1446.49 107.918 1450.77 103.259 Q1455.09 98.5715 1462.38 98.5715 Q1468.92 98.5715 1472.71 102.796 Q1476.53 106.992 1476.53 114.225 M1471.2 112.663 Q1471.15 108.294 1468.74 105.69 Q1466.37 103.085 1462.44 103.085 Q1457.98 103.085 1455.29 105.603 Q1452.63 108.12 1452.22 112.692 L1471.2 112.663 Z" fill="#000000" fill-rule="nonzero" fill-opacity="1"></path><path clip-path="url(#clip720)" d="M1504.04 104.33 Q1503.15 103.809 1502.08 103.577 Q1501.04 103.317 1499.76 103.317 Q1495.25 103.317 1492.82 106.268 Q1490.42 109.191 1490.42 114.688 L1490.42 131.76 L1485.06 131.76 L1485.06 99.3528 L1490.42 99.3528 L1490.42 104.387 Q1492.09 101.436 1494.79 100.018 Q1497.48 98.5715 1501.32 98.5715 Q1501.87 98.5715 1502.54 98.6583 Q1503.21 98.7162 1504.02 98.8609 L1504.04 104.33 Z" fill="#000000" fill-rule="nonzero" fill-opacity="1"></path><path clip-path="url(#clip720)" d="M1541.02 103.085 Q1536.74 103.085 1534.25 106.442 Q1531.76 109.769 1531.76 115.585 Q1531.76 121.401 1534.22 124.758 Q1536.71 128.085 1541.02 128.085 Q1545.28 128.085 1547.77 124.729 Q1550.25 121.372 1550.25 115.585 Q1550.25 109.827 1547.77 106.471 Q1545.28 103.085 1541.02 103.085 M1541.02 98.5715 Q1547.97 98.5715 1551.93 103.085 Q1555.9 107.599 1555.9 115.585 Q1555.9 123.542 1551.93 128.085 Q1547.97 132.599 1541.02 132.599 Q1534.05 132.599 1530.09 128.085 Q1526.15 123.542 1526.15 115.585 Q1526.15 107.599 1530.09 103.085 Q1534.05 98.5715 1541.02 98.5715 Z" fill="#000000" fill-rule="nonzero" fill-opacity="1"></path><path clip-path="url(#clip720)" d="M1591.66 112.2 L1591.66 131.76 L1586.34 131.76 L1586.34 112.374 Q1586.34 107.773 1584.54 105.487 Q1582.75 103.201 1579.16 103.201 Q1574.85 103.201 1572.36 105.95 Q1569.87 108.699 1569.87 113.444 L1569.87 131.76 L1564.52 131.76 L1564.52 99.3528 L1569.87 99.3528 L1569.87 104.387 Q1571.78 101.465 1574.36 100.018 Q1576.96 98.5715 1580.35 98.5715 Q1585.93 98.5715 1588.79 102.044 Q1591.66 105.487 1591.66 112.2 Z" fill="#000000" fill-rule="nonzero" fill-opacity="1"></path><path clip-path="url(#clip720)" d="M1646.35 105.574 Q1648.34 101.986 1651.12 100.279 Q1653.9 98.5715 1657.66 98.5715 Q1662.72 98.5715 1665.47 102.131 Q1668.22 105.661 1668.22 112.2 L1668.22 131.76 L1662.87 131.76 L1662.87 112.374 Q1662.87 107.715 1661.22 105.458 Q1659.57 103.201 1656.18 103.201 Q1652.05 103.201 1649.65 105.95 Q1647.24 108.699 1647.24 113.444 L1647.24 131.76 L1641.89 131.76 L1641.89 112.374 Q1641.89 107.686 1640.24 105.458 Q1638.59 103.201 1635.15 103.201 Q1631.07 103.201 1628.67 105.979 Q1626.27 108.728 1626.27 113.444 L1626.27 131.76 L1620.91 131.76 L1620.91 99.3528 L1626.27 99.3528 L1626.27 104.387 Q1628.09 101.407 1630.64 99.9893 Q1633.18 98.5715 1636.68 98.5715 Q1640.21 98.5715 1642.67 100.365 Q1645.16 102.159 1646.35 105.574 Z" fill="#000000" fill-rule="nonzero" fill-opacity="1"></path><path clip-path="url(#clip720)" d="M1693.57 115.47 Q1687.12 115.47 1684.63 116.945 Q1682.14 118.421 1682.14 121.98 Q1682.14 124.816 1683.99 126.494 Q1685.87 128.143 1689.08 128.143 Q1693.51 128.143 1696.17 125.018 Q1698.86 121.864 1698.86 116.656 L1698.86 115.47 L1693.57 115.47 M1704.19 113.271 L1704.19 131.76 L1698.86 131.76 L1698.86 126.841 Q1697.04 129.792 1694.32 131.21 Q1691.6 132.599 1687.67 132.599 Q1682.69 132.599 1679.74 129.821 Q1676.82 127.015 1676.82 122.327 Q1676.82 116.858 1680.46 114.081 Q1684.14 111.303 1691.4 111.303 L1698.86 111.303 L1698.86 110.782 Q1698.86 107.107 1696.43 105.111 Q1694.03 103.085 1689.66 103.085 Q1686.88 103.085 1684.25 103.751 Q1681.62 104.416 1679.19 105.747 L1679.19 100.828 Q1682.11 99.7 1684.86 99.1502 Q1687.61 98.5715 1690.21 98.5715 Q1697.24 98.5715 1700.72 102.217 Q1704.19 105.863 1704.19 113.271 Z" fill="#000000" fill-rule="nonzero" fill-opacity="1"></path><path clip-path="url(#clip720)" d="M1720.42 90.1514 L1720.42 99.3528 L1731.39 99.3528 L1731.39 103.49 L1720.42 103.49 L1720.42 121.083 Q1720.42 125.047 1721.49 126.176 Q1722.59 127.304 1725.92 127.304 L1731.39 127.304 L1731.39 131.76 L1725.92 131.76 Q1719.75 131.76 1717.41 129.474 Q1715.07 127.159 1715.07 121.083 L1715.07 103.49 L1711.16 103.49 L1711.16 99.3528 L1715.07 99.3528 L1715.07 90.1514 L1720.42 90.1514 Z" fill="#000000" fill-rule="nonzero" fill-opacity="1"></path><path clip-path="url(#clip720)" d="M1737.84 118.971 L1737.84 99.3528 L1743.16 99.3528 L1743.16 118.768 Q1743.16 123.369 1744.96 125.684 Q1746.75 127.97 1750.34 127.97 Q1754.65 127.97 1757.14 125.221 Q1759.66 122.472 1759.66 117.727 L1759.66 99.3528 L1764.98 99.3528 L1764.98 131.76 L1759.66 131.76 L1759.66 126.783 Q1757.72 129.735 1755.14 131.181 Q1752.6 132.599 1749.21 132.599 Q1743.63 132.599 1740.73 129.127 Q1737.84 125.655 1737.84 118.971 M1751.24 98.5715 L1751.24 98.5715 Z" fill="#000000" fill-rule="nonzero" fill-opacity="1"></path><path clip-path="url(#clip720)" d="M1794.73 104.33 Q1793.83 103.809 1792.76 103.577 Q1791.72 103.317 1790.44 103.317 Q1785.93 103.317 1783.5 106.268 Q1781.1 109.191 1781.1 114.688 L1781.1 131.76 L1775.74 131.76 L1775.74 99.3528 L1781.1 99.3528 L1781.1 104.387 Q1782.78 101.436 1785.47 100.018 Q1788.16 98.5715 1792.01 98.5715 Q1792.56 98.5715 1793.22 98.6583 Q1793.89 98.7162 1794.7 98.8609 L1794.73 104.33 Z" fill="#000000" fill-rule="nonzero" fill-opacity="1"></path><path clip-path="url(#clip720)" d="M1800.31 99.3528 L1805.63 99.3528 L1805.63 131.76 L1800.31 131.76 L1800.31 99.3528 M1800.31 86.7371 L1805.63 86.7371 L1805.63 93.479 L1800.31 93.479 L1800.31 86.7371 Z" fill="#000000" fill-rule="nonzero" fill-opacity="1"></path><path clip-path="url(#clip720)" d="M1822.04 90.1514 L1822.04 99.3528 L1833.01 99.3528 L1833.01 103.49 L1822.04 103.49 L1822.04 121.083 Q1822.04 125.047 1823.11 126.176 Q1824.21 127.304 1827.54 127.304 L1833.01 127.304 L1833.01 131.76 L1827.54 131.76 Q1821.37 131.76 1819.03 129.474 Q1816.69 127.159 1816.69 121.083 L1816.69 103.49 L1812.78 103.49 L1812.78 99.3528 L1816.69 99.3528 L1816.69 90.1514 L1822.04 90.1514 Z" fill="#000000" fill-rule="nonzero" fill-opacity="1"></path><path clip-path="url(#clip720)" d="M1853.49 134.769 Q1851.24 140.556 1849.09 142.321 Q1846.95 144.086 1843.37 144.086 L1839.11 144.086 L1839.11 139.63 L1842.24 139.63 Q1844.44 139.63 1845.65 138.589 Q1846.87 137.547 1848.34 133.67 L1849.3 131.239 L1836.19 99.3528 L1841.83 99.3528 L1851.96 124.7 L1862.09 99.3528 L1867.73 99.3528 L1853.49 134.769 Z" fill="#000000" fill-rule="nonzero" fill-opacity="1"></path><polyline clip-path="url(#clip722)" style="stroke:#009af9; stroke-linecap:round; stroke-linejoin:round; stroke-width:4; stroke-opacity:1; fill:none" points="219.542,1387.13 226.486,1361.05 233.431,1334.97 297.64,1093.84 361.849,852.669 371.496,816.359 381.142,779.831 385.966,761.342 390.789,742.515 395.612,723.048 400.436,702.381 402.847,691.304 405.259,679.492 407.671,666.694 410.082,652.588 412.494,636.773 414.906,618.769 416.112,608.779 417.318,598.039 418.523,586.483 419.729,574.051 420.935,560.693 422.141,546.376 423.347,531.091 424.553,514.854 426.964,479.771 429.376,442.001 431.788,403.02 434.199,364.693 435.405,346.377 436.611,328.912 437.817,312.47 439.023,297.181 440.042,285.219 441.062,274.171 442.081,264.042 443.101,254.821 444.12,246.481 445.14,238.981 446.159,232.273 447.179,226.304 449.218,216.347 451.257,208.646 453.296,202.761 455.335,198.308 459.413,192.466 463.491,189.238 467.569,187.479 471.648,186.529 479.804,185.747 487.96,185.526 496.116,185.465 504.272,185.448 539.712,185.443 575.152,185.443 607.824,185.443 640.496,185.443 710.552,185.443 791.719,185.443 863.851,185.443 927.104,185.443 996.067,185.443 1065.44,185.443 1142.14,185.443 1215.12,185.443 1291,185.443 1354.87,185.443 1432.86,185.443 1504.3,185.443 1570.28,185.443 1637.11,185.443 1712.01,185.443 1779.89,185.443 1857.6,185.443 1929.55,185.443 2000.49,185.443 2069.37,185.443 2139.97,185.443 2217.33,185.443 2329.7,185.443 2352.76,185.443 "></polyline>
<polyline clip-path="url(#clip722)" style="stroke:#808080; stroke-linecap:round; stroke-linejoin:round; stroke-width:4; stroke-opacity:1; fill:none" stroke-dasharray="16, 10" points="-1913.67,986.567 4485.97,986.567 "></polyline>
<polyline clip-path="url(#clip722)" style="stroke:#808080; stroke-linecap:round; stroke-linejoin:round; stroke-width:4; stroke-opacity:1; fill:none" stroke-dasharray="16, 10" points="-1913.67,185.443 4485.97,185.443 "></polyline>
</svg>